<svg width="50" height="50" viewBox="0 0 50 50" fill="none" xmlns="http://www.w3.org/2000/svg">
  <rect width="50" height="50" rx="6" fill="#00C4CC"/>
  <path d="M18.5 12.5C18.5 15.5 16.5 18 13.5 18C10.5 18 8.5 15.5 8.5 12.5C8.5 9.5 10.5 7 13.5 7C16.5 7 18.5 9.5 18.5 12.5Z" fill="white"/>
  <path d="M13.5 20C9.5 20 6 23.5 6 27.5V43H21V27.5C21 23.5 17.5 20 13.5 20Z" fill="white"/>
  <path d="M36.5 20C32.5 20 29 23.5 29 27.5V43H44V27.5C44 23.5 40.5 20 36.5 20Z" fill="white"/>
  <path d="M25 20C21 20 17.5 23.5 17.5 27.5V43H32.5V27.5C32.5 23.5 29 20 25 20Z" fill="white"/>
</svg> 