<svg width="38" height="57" viewBox="0 0 38 57" fill="none" xmlns="http://www.w3.org/2000/svg">
    <path d="M19 28.5C19 25.3174 20.2643 22.2652 22.5147 20.0147C24.7652 17.7643 27.8174 16.5 31 16.5C34.1826 16.5 37.2348 17.7643 39.4853 20.0147C41.7357 22.2652 43 25.3174 43 28.5C43 31.6826 41.7357 34.7348 39.4853 36.9853C37.2348 39.2357 34.1826 40.5 31 40.5C27.8174 40.5 24.7652 39.2357 22.5147 36.9853C20.2643 34.7348 19 31.6826 19 28.5Z" fill="#1ABCFE"/>
    <path d="M7 52.5C7 49.3174 8.26428 46.2652 10.5147 44.0147C12.7652 41.7643 15.8174 40.5 19 40.5H31V52.5C31 55.6826 29.7357 58.7348 27.4853 60.9853C25.2348 63.2357 22.1826 64.5 19 64.5C15.8174 64.5 12.7652 63.2357 10.5147 60.9853C8.26428 58.7348 7 55.6826 7 52.5Z" fill="#0ACF83"/>
    <path d="M7 28.5C7 25.3174 8.26428 22.2652 10.5147 20.0147C12.7652 17.7643 15.8174 16.5 19 16.5H31V40.5H19C15.8174 40.5 12.7652 39.2357 10.5147 36.9853C8.26428 34.7348 7 31.6826 7 28.5Z" fill="#A259FF"/>
    <path d="M7 4.5C7 1.31741 8.26428 -1.73479 10.5147 -3.98528C12.7652 -6.23577 15.8174 -7.5 19 -7.5H31V16.5H19C15.8174 16.5 12.7652 15.2357 10.5147 12.9853C8.26428 10.7348 7 7.68259 7 4.5Z" fill="#F24E1E"/>
    <path d="M31 -7.5H43C46.1826 -7.5 49.2348 -6.23571 51.4853 -3.98522C53.7357 -1.73474 55 1.31747 55 4.5C55 7.68253 53.7357 10.7347 51.4853 12.9852C49.2348 15.2357 46.1826 16.5 43 16.5H31V-7.5Z" fill="#FF7262"/>
</svg> 