<svg width="50" height="50" viewBox="0 0 50 50" fill="none" xmlns="http://www.w3.org/2000/svg">
  <path d="M9 5L12.1436 40.2753L24.9843 45L37.8564 40.2753L41 5H9Z" fill="#E44D26"/>
  <path d="M25 41.0238L35.1667 37.281L37.8333 8.80957H25V41.0238Z" fill="#F16529"/>
  <path d="M25 20.7144H19.9167L19.5833 16.6668H25V12.8573H15.3333L15.4167 13.8097L16.25 23.6192H25V20.7144Z" fill="#EBEBEB"/>
  <path d="M25 32.4048L24.9833 32.4096L20.75 31.2382L20.4833 28.0953H16.5833L17.1 34.2857L24.9833 36.6667L25 36.6619V32.4048Z" fill="#EBEBEB"/>
  <path d="M24.9833 20.7144V23.6192H29.7167L29.3 31.2382L24.9833 32.4096V36.6619L32.8833 34.2857L32.9333 33.7144L33.7167 24.5716L33.8 23.6192H24.9833V20.7144Z" fill="white"/>
  <path d="M24.9833 12.8573V16.6668H34.2167L34.3 15.7144L34.5 13.8097L34.5833 12.8573H24.9833Z" fill="white"/>
</svg> 