<svg width="50" height="50" viewBox="0 0 50 50" fill="none" xmlns="http://www.w3.org/2000/svg">
  <rect width="50" height="50" rx="6" fill="#330000"/>
  <path d="M19.9 34.8H15L13.9 31.1H8.3L7.3 34.8H2.6L8.5 15.2H14L19.9 34.8ZM13 27.6L11.1 20.9L9.3 27.6H13Z" fill="#FF9A00"/>
  <path d="M33.5 22.4C33.1 22.3 32.6 22.2 32.1 22.1C31.6 22 31.1 22 30.5 22C29.8 22 29.2 22.1 28.5 22.3C27.9 22.5 27.3 22.8 26.8 23.2V34.8H22.1V18.5H26.8V20.6C27.5 19.8 28.2 19.2 29 18.8C29.8 18.4 30.7 18.2 31.6 18.2C31.9 18.2 32.1 18.2 32.3 18.2C32.5 18.2 32.8 18.3 33.1 18.3L33.5 22.4Z" fill="#FF9A00"/>
  <path d="M38.5 34.8H33.8V15.2H38.5V34.8Z" fill="#FF9A00"/>
</svg> 