<svg width="50" height="50" viewBox="0 0 50 50" fill="none" xmlns="http://www.w3.org/2000/svg">
  <rect width="50" height="50" rx="6" fill="#001E36"/>
  <path d="M12 14.5V35.5H38V14.5H12ZM20.8 30.1C20.8 30.4 20.7 30.6 20.4 30.7C20.2 30.8 19.9 30.9 19.6 30.9C19.2 30.9 18.8 30.9 18.4 30.9C18 30.9 17.6 30.9 17.1 30.8V22.9C17.4 22.9 17.8 22.9 18.1 22.9C18.5 22.9 18.8 22.9 19.2 22.9C19.6 22.9 19.9 22.9 20.2 22.9C20.5 22.9 20.8 23 21 23.1C21.2 23.2 21.4 23.4 21.5 23.6C21.6 23.8 21.7 24.1 21.7 24.3C21.7 24.6 21.6 24.9 21.5 25.1C21.4 25.3 21.2 25.5 21.1 25.7C20.9 25.8 20.7 25.9 20.5 26C20.9 26.1 21.2 26.3 21.4 26.6C21.6 26.9 21.8 27.3 21.8 27.8C21.8 28.2 21.7 28.6 21.5 28.9C21.3 29.2 21.1 29.5 20.8 29.7C20.5 29.8 20.2 30 19.8 30C19.7 30.1 19.8 30.1 20.8 30.1ZM19.3 26.2H18.7V28.4H19.4C19.7 28.4 19.9 28.4 20.1 28.3C20.3 28.2 20.4 28.1 20.5 28C20.6 27.8 20.6 27.6 20.6 27.4C20.6 27.2 20.6 27 20.5 26.8C20.4 26.7 20.3 26.5 20.1 26.4C19.9 26.3 19.6 26.2 19.3 26.2ZM19.2 24.3H18.7V25.4H19.1C19.6 25.4 19.9 25.3 20.1 25.2C20.3 25 20.4 24.8 20.4 24.5C20.4 24.3 20.3 24.1 20.2 24C20 23.9 19.7 24.3 19.2 24.3ZM29.1 30.8C28.7 30.9 28.3 30.9 28 30.9C27.6 30.9 27.2 30.9 26.9 30.9C26.5 30.9 26.1 30.9 25.7 30.8C25.3 30.8 24.9 30.7 24.5 30.6L24.8 29C25.3 29.1 25.9 29.1 26.4 29.2C26.9 29.2 27.5 29.3 27.9 29.3C28.3 29.3 28.6 29.2 28.8 29.1C29 29 29.1 28.8 29.1 28.6C29.1 28.4 29 28.3 28.8 28.2C28.6 28.1 28.3 28 27.9 27.9C27.5 27.8 27.1 27.7 26.6 27.6C26.1 27.5 25.7 27.3 25.3 27C24.9 26.8 24.6 26.5 24.3 26.2C24.1 25.9 24 25.4 24 24.9C24 24.3 24.1 23.8 24.4 23.4C24.6 23 25 22.7 25.4 22.5C25.8 22.3 26.3 22.1 26.8 22C27.3 21.9 27.8 21.9 28.3 21.9C28.7 21.9 29.1 21.9 29.5 21.9C29.9 22 30.3 22 30.7 22.1L30.5 23.7C30.1 23.6 29.7 23.6 29.2 23.5C28.8 23.5 28.3 23.4 27.9 23.4C27.6 23.4 27.3 23.4 27.1 23.5C26.9 23.5 26.7 23.6 26.5 23.7C26.4 23.8 26.3 23.9 26.3 24.1C26.3 24.3 26.4 24.4 26.5 24.5C26.7 24.6 26.9 24.7 27.2 24.8C27.5 24.9 27.9 25 28.3 25.1C28.7 25.2 29.1 25.4 29.5 25.6C29.9 25.8 30.2 26 30.4 26.3C30.6 26.6 30.7 27 30.7 27.5C30.7 28.1 30.6 28.6 30.3 29C30 29.4 29.7 29.6 29.2 29.8C28.9 30.1 28.5 30.5 29.1 30.8Z" fill="#31A8FF"/>
</svg> 