<svg width="600" height="500" viewBox="0 0 600 500" fill="none" xmlns="http://www.w3.org/2000/svg">
  <!-- Background Elements -->
  <rect width="600" height="500" fill="none"/>
  <circle cx="300" cy="250" r="200" fill="#1E1E1E" opacity="0.7"/>
  <circle cx="300" cy="250" r="160" fill="#2A2A2A" opacity="0.8"/>
  
  <!-- Golden design elements -->
  <path d="M120 180C160 100 280 150 300 220C320 290 440 340 480 260" stroke="#D4AF37" stroke-width="2" stroke-dasharray="8 4"/>
  <path d="M150 300C190 220 310 270 330 340C350 410 470 460 510 380" stroke="#CFB53B" stroke-width="2" stroke-dasharray="5 5"/>
  
  <!-- Abstract shapes -->
  <rect x="220" y="180" width="160" height="240" rx="5" fill="#121212" stroke="#D4AF37" stroke-width="2"/>
  <rect x="240" y="200" width="120" height="160" rx="2" fill="#2A2A2A"/>
  
  <!-- UI Elements -->
  <rect x="250" y="220" width="100" height="16" rx="2" fill="#333333"/>
  <rect x="250" y="246" width="100" height="40" rx="2" fill="#333333"/>
  <rect x="250" y="296" width="46" height="46" rx="2" fill="#333333"/>
  <rect x="304" y="296" width="46" height="16" rx="2" fill="#333333"/>
  <rect x="304" y="320" width="46" height="22" rx="2" fill="#333333"/>
  
  <!-- Golden accents -->
  <circle cx="300" cy="150" r="10" fill="#D4AF37"/>
  <circle cx="250" cy="370" r="8" fill="#CFB53B"/>
  <circle cx="350" cy="370" r="8" fill="#D4AF37"/>
  
  <!-- Design tools -->
  <g transform="translate(430, 160) rotate(15)">
    <rect width="60" height="60" rx="30" fill="#1E1E1E" stroke="#D4AF37" stroke-width="2"/>
    <path d="M20 30L30 40L40 20" stroke="#D4AF37" stroke-width="2" stroke-linecap="round" stroke-linejoin="round"/>
  </g>
  
  <g transform="translate(150, 160) rotate(-15)">
    <rect width="60" height="60" rx="30" fill="#1E1E1E" stroke="#D4AF37" stroke-width="2"/>
    <circle cx="30" cy="30" r="15" stroke="#D4AF37" stroke-width="2"/>
    <circle cx="30" cy="30" r="5" fill="#D4AF37"/>
  </g>
  
  <!-- Floating UI elements -->
  <g transform="translate(450, 300)">
    <rect width="80" height="50" rx="4" fill="#1E1E1E" stroke="#D4AF37" stroke-width="2"/>
    <line x1="10" y1="15" x2="70" y2="15" stroke="#D4AF37" stroke-width="2"/>
    <line x1="10" y1="25" x2="50" y2="25" stroke="#CFB53B" stroke-width="2"/>
    <line x1="10" y1="35" x2="60" y2="35" stroke="#D4AF37" stroke-width="2"/>
  </g>
  
  <g transform="translate(120, 300)">
    <rect width="60" height="60" rx="4" fill="#1E1E1E" stroke="#D4AF37" stroke-width="2"/>
    <rect x="10" y="10" width="40" height="40" rx="2" fill="#2A2A2A"/>
    <path d="M20 30L30 40L40 20" stroke="#D4AF37" stroke-width="2" stroke-linecap="round" stroke-linejoin="round"/>
  </g>
  
  <!-- Golden grid pattern -->
  <g opacity="0.3">
    <line x1="50" y1="400" x2="550" y2="400" stroke="#D4AF37" stroke-width="1"/>
    <line x1="50" y1="370" x2="550" y2="370" stroke="#D4AF37" stroke-width="1"/>
    <line x1="50" y1="340" x2="550" y2="340" stroke="#D4AF37" stroke-width="1"/>
    <line x1="50" y1="310" x2="550" y2="310" stroke="#D4AF37" stroke-width="1"/>
    
    <line x1="150" y1="280" x2="150" y2="430" stroke="#D4AF37" stroke-width="1"/>
    <line x1="250" y1="280" x2="250" y2="430" stroke="#D4AF37" stroke-width="1"/>
    <line x1="350" y1="280" x2="350" y2="430" stroke="#D4AF37" stroke-width="1"/>
    <line x1="450" y1="280" x2="450" y2="430" stroke="#D4AF37" stroke-width="1"/>
  </g>
</svg> 